<svg width="163" height="30" viewBox="0 0 163 30" fill="none" xmlns="http://www.w3.org/2000/svg">
<g clip-path="url(#clip0_350_52013)">
<path d="M27.9092 6.62453H31.9413V8.95968C32.8758 7.48055 34.9745 6.23131 37.3399 6.23131C41.7059 6.23131 45.303 9.8157 45.303 15.0153C45.303 20.215 41.7733 23.7994 37.2081 23.7994C35.1737 23.7994 33.2128 22.8768 32.2139 21.5308V29.9821H27.9153V6.62453H27.9092ZM36.4667 20.0123C38.8994 20.0123 40.9645 18.0038 40.9645 15.0486C40.9645 12.0934 38.8994 10.0849 36.4667 10.0849C34.0339 10.0849 31.9688 12.0601 31.9688 15.0486C31.9688 18.0371 34.0033 20.0123 36.4667 20.0123ZM64.1889 14.1593C64.1889 14.7855 64.1215 15.5386 64.0572 16.0347H52.2979C52.6288 18.9627 54.9941 20.1152 57.5984 20.1152C59.6972 20.1152 61.8297 19.3559 63.0645 18.3366V22.3838C61.1955 23.5362 59.0691 23.7963 57.0347 23.7963C51.5687 23.7963 47.8399 20.342 47.8399 15.0456C47.8399 10.0819 51.2715 6.23131 56.3667 6.23131C61.462 6.23131 64.1981 9.78243 64.1981 14.1593H64.192H64.1889ZM52.3316 13.2368H60.0618C59.8964 11.198 58.4655 9.8157 56.2993 9.8157C54.1332 9.8157 52.7023 11.1648 52.3377 13.2368H52.3316ZM77.3515 6.23433C81.2794 6.23433 83.9481 8.83264 83.9481 13.2065V23.4031H79.6157V13.7298C79.6157 11.2979 78.1511 10.0486 76.2178 10.0486C73.35 10.0486 72.2899 12.5804 72.2899 14.7522V23.4031H67.9575V6.62453H72.1244V8.89314C73.0926 7.28394 74.787 6.23131 77.3576 6.23131H77.3515V6.23433ZM110.475 0.0516373V23.4061H106.747L94.9873 7.61969V23.4061H90.5876V0.0516373H94.35L106.109 15.8381V0.0516373H110.475ZM114.811 25.826C115.712 26.316 116.612 26.3825 117.142 26.3825C118.84 26.3825 119.64 25.4933 120.442 23.6542L120.807 22.7982L113.846 6.25248H118.475L122.808 17.9917L127.039 6.25248H131.537L124.006 24.9367C122.707 28.1611 121.04 30.0002 117.639 30.0002C116.772 30.0002 115.739 29.9034 114.808 29.4769V25.826H114.811ZM12.2955 0.0244141C10.1875 0.0244141 8.23885 0.502333 6.54145 1.34928L8.73521 5.00022C9.79226 4.46785 10.9964 4.17142 12.2955 4.17142C16.6615 4.17142 20.0257 7.5592 20.0257 12.0994C20.0257 16.6397 16.6615 20.0274 12.2955 20.0274C7.9294 20.0274 4.53152 16.6064 4.53152 12.0994C4.53152 11.0044 4.72455 9.97602 5.08609 9.04438L1.03867 7.1085C0.370733 8.6209 0 10.3087 0 12.1055C0 18.9143 5.23316 24.1775 12.2618 24.1775C19.2904 24.1775 24.5572 18.9143 24.5572 12.1055C24.5572 5.29665 19.2904 0.0244141 12.2955 0.0244141Z" fill="#F9F2EB"/>
<path d="M135.183 23.5876H130.851L138.746 3.85375C139.58 1.78176 141.112 0.989258 143.477 0.989258C145.842 0.989258 147.341 1.77873 148.14 3.85375L155.739 23.5876H151.373L144.543 5.7261C144.344 5.20281 143.979 4.96687 143.443 4.96687C142.907 4.96687 142.542 5.19676 142.31 5.7261L135.18 23.5876H135.183Z" fill="#DA6EAA"/>
<path d="M163 0V23.5874H159.072V0H163Z" fill="#F9F2EB"/>
</g>
<defs>
<clipPath id="clip0_350_52013">
<rect width="163" height="30" fill="white"/>
</clipPath>
</defs>
</svg>
